<svg width="14" height="11" viewBox="0 0 14 11" fill="none" xmlns="http://www.w3.org/2000/svg">
<path fill-rule="evenodd" clip-rule="evenodd" d="M10.15 1.9501C10.15 2.69568 9.54554 3.3001 8.79995 3.3001H7.44995V1.9501C7.44995 1.20451 8.05437 0.600098 8.79995 0.600098C9.54554 0.600098 10.15 1.20451 10.15 1.9501ZM1.69995 4.2001C1.14767 4.2001 0.699951 4.64781 0.699951 5.2001V9.5001C0.699951 10.0524 1.14767 10.5001 1.69995 10.5001H6.54995V4.2001H1.69995ZM7.44995 4.2001V10.5001H12.3C12.8522 10.5001 13.3 10.0524 13.3 9.5001V5.2001C13.3 4.64781 12.8522 4.2001 12.3 4.2001H7.44995ZM5.19995 3.3001C4.45437 3.3001 3.84995 2.69568 3.84995 1.9501C3.84995 1.20451 4.45437 0.600098 5.19995 0.600098C5.94554 0.600098 6.54995 1.20451 6.54995 1.9501V3.3001H5.19995Z" fill="#9C9C9C"/>
</svg>
